<svg width="46" height="47" viewBox="0 0 46 47" fill="none" xmlns="http://www.w3.org/2000/svg">
<path fill-rule="evenodd" clip-rule="evenodd" d="M30.4443 0.0944377C28.4885 0.681838 27.9848 2.87411 29.291 5.11444C30.0471 6.41135 31.8462 6.78509 33.1531 5.91679C33.4154 5.74249 33.6417 5.61148 33.6561 5.62561C33.9165 5.88266 34.2159 7.1703 34.0497 7.31855C33.8038 7.53799 33.4498 8.23501 33.3693 8.6582C33.3133 8.95332 33.2112 9.05763 32.5488 9.49577C31.7658 10.0136 30.8717 10.8044 30.3799 11.4139L30.0969 11.7646L27.7389 10.4598C20.8239 6.63326 17.0607 5.32957 12.9301 5.32957C9.45154 5.32957 7.4373 6.11458 8.46644 7.0692C8.71871 7.30314 8.83401 7.30057 10.0497 7.03333C13.7238 6.22576 18.0947 7.10333 23.2438 9.68246C24.6992 10.4114 29.0646 12.7752 29.2604 12.9404C29.2988 12.9727 29.2045 13.3395 29.0508 13.7553C28.1312 16.243 28.4455 19.6927 29.8614 22.6554C30.1435 23.2456 30.6705 23.5463 31.2384 23.4412C31.8914 23.3202 31.9878 23.1347 33.4133 19.2594C34.1436 17.2743 34.7582 15.6317 34.7792 15.6092C34.8002 15.5866 35.1644 15.6798 35.5884 15.8161C38.6955 16.8152 41.9025 16.7509 43.8984 15.6495C44.5136 15.31 44.5219 15.3339 44.5206 17.4665C44.5186 20.9231 43.5367 23.9658 41.6169 26.4644C40.2481 28.2461 40.2222 28.3064 40.5401 28.9681C40.7219 29.3462 41.0031 29.545 41.5505 29.6822L41.9524 29.7829L41.0456 30.7895C35.1802 37.2996 28.4778 39.2264 23.4367 35.8514C20.4229 33.8337 19.5398 31.0899 20.3747 26.3376C20.7523 24.1882 20.8701 21.5905 20.6254 20.8094C20.2405 19.5812 22.1818 22.7945 22.7348 24.301C23.0407 25.1344 23.4592 25.3552 23.9746 24.9549C25.0722 24.1025 21.5197 18.5237 18.6921 16.6591C18.3861 16.4574 17.8669 16.0765 17.5383 15.8127C16.2188 14.7536 14.6489 14.2154 12.8185 14.195L11.6849 14.1823L12.261 13.8871C14.8463 12.5626 17.7767 12.7622 20.6566 14.4589C21.8216 15.1453 22.3983 15.0839 22.3983 14.2735C22.3983 13.8717 22.2658 13.7456 21.1665 13.1014C16.0083 10.0783 9.7799 11.8245 7.33063 16.9803C6.45313 18.8274 6.34897 19.0595 6.17754 19.549C6.02423 19.987 5.78748 20.8578 5.59978 21.6745C5.55082 21.8877 5.45214 21.9461 4.83443 22.1271C4.13245 22.3329 3.31934 22.786 2.82558 23.2466L2.57006 23.4848L2.41907 23.1965C1.31253 21.0838 1.16322 17.2283 2.07175 14.2282C2.71826 12.0935 4.12334 10.0314 5.68267 8.92901C6.72073 8.19501 6.91297 7.79953 6.44328 7.36378C5.98483 6.93866 5.23639 7.30424 3.82304 8.64389C-0.0354029 12.3012 -1.16787 19.3696 1.32396 24.2423C1.65289 24.8855 1.66877 24.9589 1.67779 25.8789C1.6894 27.0635 1.91361 27.6162 2.72207 28.4529C3.50118 29.2594 4.39801 29.6779 5.96355 29.9657C6.08462 29.9879 6.2449 30.1893 6.41373 30.5312C7.04705 31.8137 8.48075 33.5771 9.53618 34.3718L10.0066 34.7261L9.98172 36.7817L9.95681 38.8373L8.60953 39.225C3.65263 40.6516 1.85563 42.1742 1.6776 45.0981C1.61925 46.0564 1.75063 46.4201 2.28174 46.7705L2.59747 46.9787H14.5562H26.5149L26.8306 46.7705C27.9876 46.0073 27.4587 43.0798 25.9234 41.7489C24.979 40.9302 24.1767 41.925 25.0228 42.8656C25.6029 43.5104 25.9078 44.1933 25.9643 44.9748L26.0099 45.6027H14.5562H3.10247L3.14912 44.9597C3.29983 42.8796 4.7562 41.8252 9.2933 40.5113C11.3838 39.906 11.397 39.8866 11.397 37.4327C11.397 36.0604 11.4225 35.6866 11.5132 35.7269C14.0596 36.8603 15.0411 36.8602 17.5992 35.7268C17.6899 35.6866 17.7153 36.0605 17.7153 37.4327C17.7153 39.8861 17.7284 39.9053 19.819 40.5126C20.5784 40.7332 21.4467 40.9986 21.7485 41.1023C22.6863 41.4247 23.1974 41.2407 23.1974 40.5806C23.1974 40.054 23.0836 39.9942 20.7816 39.3139L19.1555 38.8333L19.1304 36.7906L19.1054 34.748L19.4092 34.4913C19.8236 34.1412 19.863 34.1529 20.2783 34.7515C22.5988 38.0958 27.4272 39.6435 31.9827 38.5034C35.5918 37.6001 39.5295 34.8691 42.6854 31.0807C43.8596 29.671 43.7159 28.5634 42.3353 28.3805L41.9694 28.3321L42.3284 27.9082C45.1171 24.6159 46.4731 19.7559 45.8511 15.2832C45.6692 13.9745 44.8124 13.4896 43.7459 14.0915C43.3298 14.3263 43.1744 14.3221 43.1744 14.0757C43.1744 12.9583 40.8105 10.1142 39.1463 9.22936C38.8684 9.08157 38.7988 8.98075 38.7179 8.60857C38.6058 8.09218 38.4409 7.75219 38.1196 7.37524L37.8896 7.10535L38.178 6.32144L38.4665 5.53754L38.8752 5.84551C40.7365 7.24828 42.7749 6.13228 43.5073 3.30959C44.2116 0.595512 40.7264 -1.1588 38.8382 0.959162C38.5338 1.30061 38.3373 1.74884 37.5514 3.89479L36.6238 6.42749L36.0631 6.42896L35.5024 6.43043L34.7254 4.29752C33.7282 1.56032 33.5186 1.12081 32.9932 0.664132C32.3349 0.0919608 31.2556 -0.149219 30.4443 0.0944377ZM31.5521 1.47436C32.4436 1.72683 33.1666 3.59471 32.6786 4.38476C31.8482 5.72946 30.0056 4.56576 29.9847 2.68329C29.9753 1.83113 30.737 1.24355 31.5521 1.47436ZM41.5627 1.615C42.4486 2.18818 42.1311 4.32816 41.0875 4.81712C39.775 5.43204 38.908 4.2877 39.5034 2.72604C39.9748 1.48932 40.7347 1.07934 41.5627 1.615ZM36.7444 8.04979C37.2575 8.37088 37.461 9.10726 37.1831 9.63769C36.5562 10.8347 34.8119 10.4099 34.8119 9.06029C34.8119 8.11374 35.9203 7.53422 36.7444 8.04979ZM34.1991 10.9906L34.7296 11.5145L32.9057 16.472C31.9025 19.1987 31.0466 21.4652 31.0037 21.5088C30.8898 21.6242 30.2851 19.7031 30.1213 18.7062C29.5823 15.4244 30.5315 12.7613 32.8567 11.0314C33.7621 10.3578 33.5642 10.3638 34.1991 10.9906ZM39.0575 10.8736C40.4794 11.8951 42.2452 14.4513 41.818 14.8694C41.6093 15.0736 39.7679 15.2175 38.9932 15.0901L38.6679 15.0366L38.0408 13.3237C37.2937 11.2834 37.312 11.591 37.9014 10.9869C38.4972 10.3763 38.3811 10.3877 39.0575 10.8736ZM36.6566 13.742C36.8716 14.3287 36.9851 14.7548 36.9213 14.7354C35.499 14.3012 35.2667 14.2026 35.3252 14.0581C35.3588 13.9751 35.5363 13.4978 35.7196 12.9974L36.053 12.0877L36.1665 12.4011C36.229 12.5735 36.4495 13.1769 36.6566 13.742ZM14.3138 15.7852C16.5884 16.3595 18.4643 18.3114 19.1214 20.7875C19.4385 21.9821 19.3957 23.453 18.9732 25.8789C18.4233 29.0365 18.4334 30.674 19.0127 32.3368L19.194 32.8568L18.4314 33.4525C15.6701 35.6096 13.6278 35.6482 10.8689 33.5957C7.32877 30.962 6.08016 27.2926 6.98359 22.1778C7.82912 17.3904 10.7125 14.8758 14.3138 15.7852ZM10.2237 20.3542C9.57456 20.5833 9.27379 20.7928 9.20484 21.0639C9.02626 21.7666 9.59983 22.1701 10.3263 21.8528C10.8933 21.6052 11.4976 21.6066 12.1093 21.8569C12.5708 22.0457 12.604 22.0476 12.8355 21.8979C14.1508 21.047 11.9486 19.7454 10.2237 20.3542ZM10.696 23.4437C10.1204 24.0119 10.4816 25.6087 11.1838 25.6008C11.7193 25.5948 11.9545 25.2173 11.9545 24.3642C11.9545 23.3887 11.2635 22.8833 10.696 23.4437ZM5.28006 24.9938C5.25339 26.0864 5.28452 26.7503 5.395 27.4385C5.57191 28.5416 5.59179 28.4883 5.06998 28.3084C2.61717 27.4631 2.36992 24.8444 4.63764 23.7287C5.3517 23.3774 5.32104 23.3171 5.28006 24.9938ZM12.0897 29.5902C10.8273 30.8365 14.7592 31.7893 16.7315 30.715C17.8787 30.0903 17.1335 29.1247 15.8353 29.5536C14.9722 29.8387 14.0865 29.8419 13.3051 29.5629C12.5929 29.3087 12.3698 29.3136 12.0897 29.5902Z" fill="#CDA582"/>
</svg>
