<svg width="46" height="46" viewBox="0 0 46 46" fill="none" xmlns="http://www.w3.org/2000/svg">
<path fill-rule="evenodd" clip-rule="evenodd" d="M0.195254 0.20781C-0.0641267 0.483955 -0.0585583 0.90154 0.207828 1.15182L0.415746 1.34705H6.79267C10.9712 1.34705 13.3533 1.38046 13.7025 1.44404C15.5046 1.77218 16.9144 3.3758 16.9933 5.18731C17.0311 6.05543 17.2018 6.01682 13.3233 6.01682C9.3907 6.01682 9.61002 6.07187 9.61002 5.0852C9.61002 4.04914 9.20541 3.31563 8.41748 2.92301L7.95808 2.6941H4.17434H0.390598L0.195254 2.90191C-0.0641267 3.17805 -0.0585583 3.59564 0.207828 3.84592C0.414129 4.03962 0.443947 4.04115 3.98448 4.04115C8.30782 4.04115 8.17301 4.0081 8.17301 5.06697C8.17301 6.09234 8.58013 6.8334 9.35567 7.21991L9.82494 7.45367H13.2322C17.1154 7.45367 17.1654 7.44667 17.7992 6.81571C19.305 5.31636 17.9162 1.78134 15.3378 0.550499C14.1688 -0.00753825 14.2821 5.2273e-06 7.01666 5.2273e-06H0.390598L0.195254 0.20781ZM9.73621 8.98975C9.57221 9.17098 9.56511 9.38974 9.56511 14.2856V19.3925L9.76216 19.5896C10.0453 19.8726 10.4807 19.8516 10.7469 19.5422L10.9572 19.2976V14.2858C10.9572 9.35139 10.9543 9.2703 10.771 9.03735C10.53 8.73085 9.99289 8.70616 9.73621 8.98975ZM12.8433 8.98032C12.6698 9.15382 12.6637 9.27964 12.6637 12.7072C12.6637 16.6911 12.6506 16.6136 13.3216 16.6136C14.0174 16.6136 14.0109 16.6511 14.0109 12.679C14.0109 8.71352 14.026 8.80072 13.3373 8.80072C13.1426 8.80072 12.9545 8.86915 12.8433 8.98032ZM15.9035 9.03735C15.5958 9.42844 15.6166 14.1516 15.9277 14.5132C16.1939 14.8227 16.6293 14.8436 16.9124 14.5606C17.1999 14.2731 17.223 9.30434 16.9383 8.98975C16.6816 8.70616 16.1446 8.73085 15.9035 9.03735ZM29.2791 14.4933C29.0568 14.5554 28.3048 14.8528 27.608 15.1544C26.9111 15.4559 26.1836 15.7307 25.9913 15.765C25.2736 15.8933 24.9919 16.5312 25.4591 16.97C25.8176 17.3069 26.413 17.1898 28.1544 16.4402C30.3025 15.5156 30.3945 15.5593 30.7648 17.6823C30.9292 18.6245 30.9565 18.6539 32.1508 19.176C33.1219 19.6005 33.1254 19.6031 33.0237 19.8366C32.7881 20.3771 32.382 20.9449 31.9933 21.2771C31.0441 22.0884 31.8413 23.0969 32.8527 22.3644C33.279 22.0556 33.8294 21.3489 34.1634 20.6814L34.3972 20.2142L35.049 20.5809C37.9845 22.2328 38.1904 23.5594 36.1774 27.8503L35.7279 28.8086L35.0395 28.7615C31.7731 28.5376 27.7649 29.9461 25.0386 32.2758L24.3456 32.868L22.9729 32.8674C21.0582 32.8668 20.4805 32.6605 20.1104 31.8457C19.6382 30.806 20.471 29.5453 21.63 29.5453C22.0761 29.5453 22.3776 29.23 22.3457 28.797C22.319 28.4338 22.3033 28.4182 21.2651 27.7311C18.4867 25.892 17.3479 24.0957 17.1604 21.2568C17.0874 20.154 16.9529 19.9064 16.4266 19.9064C15.9234 19.9064 15.6972 20.2768 15.7281 21.05C15.7534 21.6841 15.7513 21.6905 15.3309 22.2591C13.7348 24.418 13.319 27.6148 14.7093 27.039C15.0121 26.9137 15.118 26.7034 15.2711 25.923C15.3917 25.3089 15.7175 24.3215 15.9443 23.883L16.1038 23.5745L16.1918 23.7984C16.9305 25.6781 18.0782 27.1877 19.5977 28.2787L20.0204 28.5821L19.5944 28.965C18.6392 29.8236 18.3236 31.1454 18.795 32.3123L19.0196 32.868H17.0092H14.9988V30.8883V28.9085L14.7783 28.6881C14.4244 28.3341 13.9162 28.4021 13.6932 28.8333C13.5901 29.0327 13.5618 29.4942 13.5618 30.9776V32.868H12.2595H10.9572V30.4977C10.9572 23.4961 12.7607 19.5741 16.9298 17.5093C18.6809 16.6421 22.3155 16.0599 22.042 16.6905C21.454 18.0462 21.2896 20.4004 21.7529 20.8318C22.3718 21.4084 22.8776 20.9059 22.8879 19.7044C22.8971 18.6269 23.1278 17.6405 23.5823 16.7364C24.1289 15.6488 23.9351 15.3434 22.5881 15.1688C17.8714 14.5576 13.26 17.1497 11.1316 21.6086C9.94799 24.0884 9.52461 26.547 9.52155 30.9597L9.52021 32.868H7.73957C5.9945 32.868 5.95507 32.8721 5.76368 33.0758C5.51795 33.3374 5.51453 33.6732 5.75461 33.9784L5.9407 34.215H19.0079C28.6801 34.215 32.1261 34.2419 32.2713 34.3183C32.5558 34.468 32.5993 34.5676 32.6009 35.0717C32.6092 37.8354 28.7118 42.0771 24.1068 44.3161C22.8539 44.9252 22.6249 45.261 23.1229 45.7588C23.4713 46.1072 23.7668 46.0445 25.1721 45.3241C27.8751 43.9384 29.29 42.8058 32.0633 39.8079C33.5573 38.1929 36.0266 37.8913 37.9461 39.0892C38.1931 39.2434 39.8927 40.8567 41.723 42.6744C45.3395 46.266 45.3307 46.2593 45.7891 45.7714C46.2473 45.2837 46.2801 45.3257 42.4592 41.5203C38.5928 37.6697 38.4167 37.5315 36.8683 37.1307C36.1989 36.9573 34.6126 36.951 33.9923 37.1191L33.541 37.2413L33.7461 36.6303C34.1877 35.3136 34.1062 34.2197 33.518 33.5673C32.8982 32.88 32.855 32.8725 29.5037 32.868L26.5398 32.864L26.7644 32.6833C29.58 30.4163 34.4896 29.562 38.2435 30.6859C39.3872 31.0284 39.5777 31.0416 39.8377 30.7973C40.5418 30.136 39.7736 29.5255 37.7027 29.1005L37.19 28.9952L37.4228 28.4844C40.1248 22.5574 39.3491 20.7723 32.8492 17.9599C32.2992 17.7219 32.1531 17.6194 32.1531 17.4711C32.1531 17.1597 31.8031 15.9967 31.5748 15.5504C31.0529 14.5294 30.3349 14.1989 29.2791 14.4933ZM25.8456 18.6232C25.7601 18.6881 25.5897 19.038 25.467 19.4008C25.3442 19.7636 25.1009 20.2678 24.9263 20.5213C24.4238 21.2508 24.6045 21.912 25.3064 21.912C25.7918 21.912 26.7782 20.3556 26.9098 19.3822C27.0012 18.7055 26.3493 18.2406 25.8456 18.6232ZM41.2265 30.8901C40.7416 31.3749 40.8948 31.7144 41.9005 32.3835C42.5592 32.8218 44.5332 34.5221 44.8951 34.9629C45.2193 35.3577 45.9844 34.9793 45.9844 34.4243C45.9844 33.8167 42.3587 30.7109 41.6509 30.7122C41.5151 30.7125 41.3241 30.7925 41.2265 30.8901ZM0.195254 33.0758L0 33.2837V39.4362V45.5887L0.207828 45.784C0.484004 46.0434 0.901635 46.0378 1.15194 45.7714L1.3472 45.5635V39.8893V34.215H2.58896C3.77081 34.215 3.84006 34.205 4.02597 34.0072C4.27448 33.7427 4.28194 33.2879 4.0416 33.0476C3.74378 32.7498 0.479064 32.7738 0.195254 33.0758Z" fill="#CDA582"/>
</svg>
