<svg width="288" height="72" viewBox="0 0 288 72" fill="none" xmlns="http://www.w3.org/2000/svg">
<path d="M1.76431 45.7919V34.1731H7.75302C9.18744 34.1731 10.2872 34.4421 11.0522 34.98C11.8172 35.5059 12.1997 36.2709 12.1997 37.275C12.1997 37.9205 12.0503 38.4345 11.7515 38.817C11.4526 39.1876 11.0343 39.4685 10.4963 39.6598C9.95844 39.8391 9.31892 39.9526 8.57781 40.0004L8.64953 39.8928C9.18744 39.9048 9.69546 39.9526 10.1736 40.0363C10.6517 40.108 11.0701 40.2395 11.4287 40.4308C11.7993 40.622 12.0862 40.891 12.2894 41.2376C12.5045 41.5723 12.6121 42.0086 12.6121 42.5465C12.6121 43.2637 12.4328 43.8554 12.0742 44.3216C11.7156 44.7878 11.2136 45.1464 10.5681 45.3974C9.93453 45.6365 9.19939 45.768 8.36264 45.7919H1.76431ZM3.82629 44.0347H8.07576C8.85274 44.0347 9.45041 43.9032 9.86879 43.6403C10.2991 43.3653 10.5143 42.941 10.5143 42.3672C10.5143 41.9249 10.3828 41.6022 10.1198 41.399C9.86878 41.1958 9.53409 41.0643 9.11571 41.0045C8.69734 40.9448 8.26104 40.9149 7.80681 40.9149H3.82629V44.0347ZM3.82629 39.1936H7.6275C8.40448 39.1936 9.00216 39.0621 9.42053 38.7991C9.85085 38.5242 10.066 38.0998 10.066 37.5261C10.066 36.9523 9.85085 36.5459 9.42053 36.3068C9.00216 36.0558 8.4523 35.9303 7.77095 35.9303H3.82629V39.1936ZM33.2787 40.879V34.1731H35.3407V41.0404C35.3407 41.7695 35.2391 42.415 35.0359 42.9769C34.8446 43.5267 34.5637 43.9929 34.1931 44.3754C33.8345 44.7579 33.4042 45.0747 32.9022 45.3257C32.4121 45.5648 31.8741 45.7381 31.2884 45.8457C30.7027 45.9533 30.0811 46.0071 29.4237 46.0071C28.7543 46.0071 28.1148 45.9533 27.5051 45.8457C26.9075 45.7381 26.3576 45.5648 25.8556 45.3257C25.3655 45.0747 24.9411 44.7579 24.5825 44.3754C24.2239 43.9929 23.943 43.5267 23.7398 42.9769C23.5485 42.415 23.4529 41.7695 23.4529 41.0404V34.1731H25.5149V40.879C25.5149 41.7875 25.6882 42.4808 26.0349 42.9589C26.3815 43.4251 26.8477 43.7479 27.4334 43.9272C28.0191 44.0945 28.6826 44.1782 29.4237 44.1782C30.1409 44.1782 30.7864 44.0945 31.3601 43.9272C31.9459 43.7479 32.4121 43.4251 32.7587 42.9589C33.1054 42.4808 33.2787 41.7875 33.2787 40.879ZM48.902 40.8611V44.0168H57.1499V45.7919H46.84V34.1731H57.1319V35.9482H48.902V39.1577H55.6437V40.8611H48.902ZM79.1663 43.6403L78.5208 43.8913V34.1731H80.6007V45.7919H78.5208L69.7529 36.3785L70.3804 36.1275V45.7919H68.3185V34.1731H70.3804L79.1663 43.6403ZM98.4201 46.0071C97.0455 46.0071 95.8441 45.762 94.8161 45.2719C93.8001 44.7818 93.0112 44.0885 92.4493 43.192C91.8995 42.2955 91.6246 41.2257 91.6246 39.9825C91.6246 38.7393 91.8995 37.6695 92.4493 36.773C93.0112 35.8645 93.8001 35.1712 94.8161 34.6931C95.8441 34.203 97.0455 33.9579 98.4201 33.9579C99.8187 33.9579 101.02 34.203 102.024 34.6931C103.04 35.1712 103.829 35.8645 104.391 36.773C104.953 37.6695 105.234 38.7393 105.234 39.9825C105.234 41.2257 104.953 42.2955 104.391 43.192C103.829 44.0885 103.04 44.7818 102.024 45.2719C101.02 45.762 99.8187 46.0071 98.4201 46.0071ZM98.4201 44.1782C99.3286 44.1782 100.129 44.0288 100.823 43.7299C101.528 43.4191 102.078 42.9529 102.472 42.3314C102.879 41.7098 103.082 40.9268 103.082 39.9825C103.082 39.0501 102.879 38.2731 102.472 37.6516C102.078 37.03 101.528 36.5638 100.823 36.253C100.129 35.9422 99.3286 35.7868 98.4201 35.7868C97.5236 35.7868 96.7167 35.9422 95.9995 36.253C95.2943 36.5638 94.7384 37.03 94.332 37.6516C93.9256 38.2731 93.7224 39.0501 93.7224 39.9825C93.7224 40.9268 93.9256 41.7098 94.332 42.3314C94.7384 42.9529 95.2943 43.4191 95.9995 43.7299C96.7167 44.0288 97.5236 44.1782 98.4201 44.1782Z" fill="#525252"/>
<path d="M167.65 45.7919V34.1731H173.639C175.073 34.1731 176.173 34.4421 176.938 34.98C177.703 35.5059 178.085 36.2709 178.085 37.275C178.085 37.9205 177.936 38.4345 177.637 38.817C177.338 39.1876 176.92 39.4685 176.382 39.6598C175.844 39.8391 175.205 39.9526 174.463 40.0004L174.535 39.8928C175.073 39.9048 175.581 39.9526 176.059 40.0363C176.537 40.108 176.956 40.2395 177.314 40.4308C177.685 40.622 177.972 40.891 178.175 41.2376C178.39 41.5723 178.498 42.0086 178.498 42.5465C178.498 43.2637 178.318 43.8554 177.96 44.3216C177.601 44.7878 177.099 45.1464 176.454 45.3974C175.82 45.6365 175.085 45.768 174.248 45.7919H167.65ZM169.712 44.0347H173.961C174.738 44.0347 175.336 43.9032 175.754 43.6403C176.185 43.3653 176.4 42.941 176.4 42.3672C176.4 41.9249 176.268 41.6022 176.005 41.399C175.754 41.1958 175.42 41.0643 175.001 41.0045C174.583 40.9448 174.147 40.9149 173.692 40.9149H169.712V44.0347ZM169.712 39.1936H173.513C174.29 39.1936 174.888 39.0621 175.306 38.7991C175.736 38.5242 175.952 38.0998 175.952 37.5261C175.952 36.9523 175.736 36.5459 175.306 36.3068C174.888 36.0558 174.338 35.9303 173.657 35.9303H169.712V39.1936ZM191.401 40.8611V44.0168H199.648V45.7919H189.339V34.1731H199.63V35.9482H191.401V39.1577H198.142V40.8611H191.401ZM212.449 43.0844V41.3093H219.441V43.0844H212.449ZM209.741 45.7919L214.851 34.1731H217.075L222.239 45.7919H219.979L215.515 35.3027H216.411L211.965 45.7919H209.741ZM242.296 40.879V34.1731H244.358V41.0404C244.358 41.7695 244.257 42.415 244.054 42.9769C243.862 43.5267 243.581 43.9929 243.211 44.3754C242.852 44.7579 242.422 45.0747 241.92 45.3257C241.43 45.5648 240.892 45.7381 240.306 45.8457C239.72 45.9533 239.099 46.0071 238.441 46.0071C237.772 46.0071 237.132 45.9533 236.523 45.8457C235.925 45.7381 235.375 45.5648 234.873 45.3257C234.383 45.0747 233.959 44.7579 233.6 44.3754C233.242 43.9929 232.961 43.5267 232.757 42.9769C232.566 42.415 232.471 41.7695 232.471 41.0404V34.1731H234.533V40.879C234.533 41.7875 234.706 42.4808 235.053 42.9589C235.399 43.4251 235.865 43.7479 236.451 43.9272C237.037 44.0945 237.7 44.1782 238.441 44.1782C239.159 44.1782 239.804 44.0945 240.378 43.9272C240.964 43.7479 241.43 43.4251 241.776 42.9589C242.123 42.4808 242.296 41.7875 242.296 40.879ZM254.782 34.1731H266.042V35.9482H254.782V34.1731ZM259.39 35.733H261.452V45.7919H259.39V35.733ZM287.25 34.1731L282.481 42.0265V45.7919H280.401V42.0265L275.631 34.1731H278.016L282.05 41.0404H280.903L284.865 34.1731H287.25Z" fill="#D9B79A"/>
<path fill-rule="evenodd" clip-rule="evenodd" d="M149.145 10.946C144.321 11.4413 145.682 15.3954 140.529 19.6391C137.314 22.2761 135.087 23.6342 132.614 25.5718C127.008 29.9802 123.833 35.0058 123.957 42.4213C125.276 30.4739 134.923 24.8709 138.88 21.9454C133.15 26.971 130.512 31.1322 128.822 34.5526C125.235 41.8019 125.07 47.1583 132.285 52.4721C135.253 54.6153 139.375 57.2096 140.076 63.1833C138.303 60.1347 134.304 56.7569 131.007 55.8089C137.809 61.0417 140.983 65.0368 139.952 72C137.684 62.4429 126.472 59.5179 121.236 51.3185C108.993 30.6795 132.16 26.971 138.838 17.0433C131.748 24.0475 121.731 25.7774 116.949 36.1169C119.669 25.5718 123.709 22.3586 126.842 20.0098C132.325 16.0132 138.096 14.6945 140.734 7.19803C136.365 14.655 132.202 14.9842 125.935 19.1849C120.947 22.5232 116.165 27.6724 114.929 39.3301C109.612 28.2067 115.672 12.6349 123.627 5.67321C131.872 -1.53664 142.095 -2.9784 150.546 7.89738C161.595 14.4063 165.552 29.1552 150.794 47.611C161.43 32.6976 159.038 19.5566 152.772 14.2412C160.152 24.9524 155.494 35.0463 151.165 43.9861C148.485 49.5055 149.269 50.7417 151.619 56.3452C147.372 52.6367 148.526 49.2174 143.992 45.5104C140.9 43.0381 137.066 41.5138 134.469 38.7123C133.067 37.1464 132.614 35.458 134.469 31.2963C135.458 29.1962 136.53 28.8255 137.725 29.6074C138.838 30.3909 142.549 33.6861 143.044 30.8846C143.168 30.1012 143.003 29.6484 143.867 29.2783C144.445 29.0311 145.022 29.1547 144.857 28.3302C144.774 27.9185 144.898 27.7539 145.393 27.6719C145.97 27.5483 145.929 27.3427 145.846 26.6829C145.599 25.076 146.876 25.2821 147.66 25.035C148.402 24.7879 148.402 24.2121 148.196 23.5517C148.072 23.1815 147.99 22.8108 147.867 22.4406C147.495 21.1219 147.454 20.2565 147.619 19.351L149.061 19.1849L147.784 18.6911C148.897 15.9717 149.721 14.737 149.145 10.9465L149.145 10.946ZM152.484 20.2565C153.226 23.5517 152.937 27.0136 152.113 30.1858C150.67 35.6642 148.32 37.5176 147.207 44.1922C147.537 37.1469 149.681 34.8407 151.123 29.8135C151.907 27.0956 152.401 23.9649 152.484 20.2565ZM130.512 3.11884C120.371 7.85585 114.847 19.2669 114.682 30.2678C116.785 19.5156 120.206 10.2872 130.512 3.11884Z" fill="#CDA582"/>
</svg>
