<svg width="46" height="46" viewBox="0 0 46 46" fill="none" xmlns="http://www.w3.org/2000/svg">
<path fill-rule="evenodd" clip-rule="evenodd" d="M0.206437 0.252358C-0.125942 0.584586 -0.216208 -1.05764 1.18774 18.1087C2.25222 32.6399 2.42144 35.2827 2.42144 37.3705V39.7904L2.67384 40.0426L2.92613 40.295H6.36404H9.80185L9.83845 41.0996C9.88441 42.1094 10.234 42.7478 11.0003 43.2219L11.5033 43.533L14.3516 43.5632L17.1999 43.5934L17.256 44.0104C17.3384 44.625 17.8184 45.3277 18.4028 45.6889L18.9061 46H27.9179H36.9298L37.4331 45.6889C38.0174 45.3277 38.4974 44.625 38.5799 44.0104L38.6359 43.5934L41.4842 43.5632L44.3325 43.533L44.8356 43.2219C45.147 43.0293 45.457 42.7191 45.6497 42.4076L45.9608 41.9045L45.9922 32.131C46.0146 25.1805 45.9898 22.1401 45.9064 21.6048C45.6104 19.7039 44.6337 17.8476 43.1946 16.4512L42.7223 15.993V14.0052C42.7223 11.4828 42.7402 11.5128 41.2362 11.5128H40.2549V9.86816V8.22346H40.8643C41.7945 8.22346 42.215 7.52108 41.6868 6.84963L41.4737 6.57877H35.7314H29.989L29.776 6.84963C29.6588 6.99858 29.5629 7.24672 29.5629 7.40112C29.5629 7.55551 29.6588 7.80366 29.776 7.9526L29.989 8.22346H32.6546H35.3201V9.86816V11.5128H34.3388C32.8348 11.5128 32.8527 11.4828 32.8527 14.0052V15.993L32.3804 16.4512C30.0254 18.7364 29.5629 20.2811 29.5629 25.8616V29.6045H27.0955H24.6281V27.0562C24.6281 23.87 24.4142 22.9429 23.3424 21.4831L22.9831 20.9937V16.0944V11.1951L22.7307 10.9429C22.5002 10.7123 22.3985 10.6905 21.5534 10.6905H20.6282L20.6786 10.2022C20.7719 9.29673 21.3382 1.31976 21.3382 0.910337C21.3382 0.616657 21.2685 0.434919 21.0858 0.252358L20.8335 0H10.6461H0.458729L0.206437 0.252358ZM19.5536 2.27656C19.5174 2.624 19.4876 2.99406 19.4876 3.09891C19.4876 3.28291 19.1858 3.28939 10.6461 3.28939C2.10644 3.28939 1.80459 3.28291 1.80459 3.09891C1.80459 2.99406 1.77488 2.624 1.73859 2.27656L1.67248 1.64469H10.6461H19.6197L19.5536 2.27656ZM19.335 5.42235C19.266 6.01485 18.9736 10.0663 18.9736 10.4305V10.6905H15.4735H11.9733L11.721 10.9429L11.4686 11.1951V16.0944V20.9937L11.1056 21.4881C9.91607 23.1083 9.82365 23.6603 9.82365 29.1469V33.7162H6.94964H4.07573L4.02289 33.3821C3.9938 33.1983 3.5291 26.919 2.99008 19.4279C2.45116 11.9369 1.9842 5.61128 1.95243 5.37095L1.89476 4.93408H10.6433H19.3919L19.335 5.42235ZM38.61 9.86816V11.5128H37.7875H36.9651V9.86816V8.22346H37.7875H38.61V9.86816ZM21.3382 16.4469V20.5587H20.927H20.5157V17.1105V13.6622L20.2633 13.4099L20.011 13.1575H17.2259H14.4407L14.1884 13.4099L13.936 13.6622V17.1105V20.5587H13.5248H13.1135V16.4469V12.3352H17.2259H21.3382V16.4469ZM41.0774 14.3911V15.6246H37.7875H34.4977V14.3911V13.1575H37.7875H41.0774V14.3911ZM18.8708 17.6804V20.5587H17.2259H15.5809V17.6804V14.8022H17.2259H18.8708V17.6804ZM16.5846 16.1966C15.7998 16.6224 15.8126 17.9368 16.6056 18.3469C17.2217 18.6654 18.0124 18.4523 18.3036 17.8894C18.8896 16.7564 17.7042 15.5892 16.5846 16.1966ZM41.9197 17.5785C42.7693 18.2786 43.6623 19.7311 44.079 21.0902L44.3099 21.8436L44.3425 31.5872L44.3752 41.3308L44.0707 41.6353L43.7663 41.9397H41.1881H38.61V36.0244V30.1091L38.3576 29.8568L38.1053 29.6045H34.648H31.1907L31.2334 25.724C31.2733 22.0969 31.2908 21.7944 31.5015 21.0902C31.9043 19.7445 32.801 18.2826 33.6554 17.5785L34.0305 17.2693H37.7875H41.5446L41.9197 17.5785ZM22.1438 22.7222C22.8493 23.7996 22.912 24.1293 22.959 27.0089L23.0013 29.6045H20.3659H17.7305L17.4783 29.8568L17.2259 30.1091V36.0244V41.9397H14.6477H12.0696L11.7657 41.6358L11.4618 41.3318L11.4916 32.8727C11.525 23.3709 11.475 23.9943 12.3079 22.7222L12.6476 22.2034H17.2259H21.8041L22.1438 22.7222ZM36.9651 32.8939V34.5385H27.9179H18.8708V32.8939V31.2492H27.9179H36.9651V32.8939ZM9.82365 37.0056V38.6503H6.94501H4.06638V37.0056V35.3609H6.94501H9.82365V37.0056ZM36.9651 39.9945V43.8058L36.6646 44.1062L36.3641 44.4067H27.9179H19.4718L19.1713 44.1062L18.8708 43.8058V39.9945V36.1832H27.9179H36.9651V39.9945Z" fill="#CDA582"/>
</svg>
