<svg width="46" height="45" viewBox="0 0 46 45" fill="none" xmlns="http://www.w3.org/2000/svg">
<path fill-rule="evenodd" clip-rule="evenodd" d="M43.1403 0.147074C42.5934 0.379785 33.2597 7.8291 26.753 13.2259L24.5867 15.0227L17.7156 8.32529C10.3405 1.13638 10.5834 1.34727 9.43621 1.13884C9.06349 1.07117 8.7674 1.07117 8.39468 1.13884C7.29706 1.33824 7.2295 1.3918 3.50948 5.01149C-0.316053 8.73374 -0.270651 8.67545 0.252897 9.1868C0.710497 9.63391 0.769536 9.59411 3.28185 7.14665L5.59686 4.89132L6.06558 5.34921L6.53431 5.80709L4.22558 8.06856C1.72018 10.5228 1.67944 10.5804 2.13713 11.0275C2.63645 11.5153 2.71021 11.4672 5.23553 9.00703L7.53035 6.77133L7.97413 7.21151L8.41792 7.65161L6.20349 9.81964C3.71163 12.2593 3.60235 12.4173 4.05295 12.9299C4.45833 13.391 4.65797 13.2556 7.11986 10.8493L9.40543 8.61523L9.87865 9.07172L10.3519 9.52829L8.0635 11.7699C5.54517 14.2366 5.49592 14.3086 5.99533 14.7964C6.45293 15.2435 6.51197 15.2037 9.02428 12.7563L11.3393 10.5009L11.808 10.9588L12.2767 11.4167L9.96801 13.6782C7.46261 16.1324 7.42187 16.1901 7.87956 16.6371C8.37888 17.1249 8.45264 17.0768 10.978 14.6167L13.2728 12.381L13.7157 12.8203L14.1586 13.2596L11.9463 15.4285C9.45317 17.8726 9.34568 18.028 9.79538 18.5395C10.2008 19.0007 10.4004 18.8652 12.8623 16.4589L15.1479 14.2249L15.6211 14.6813L16.0943 15.1379L13.8059 17.3795C11.2876 19.8462 11.2383 19.9183 11.7378 20.406C12.1954 20.8531 12.2544 20.8134 14.7667 18.3659L17.0817 16.1106L17.5504 16.5684L18.0192 17.0263L15.7104 19.2878C13.205 21.742 13.1643 21.7997 13.622 22.2467C14.1213 22.7346 14.1951 22.6864 16.7202 20.2264L19.0149 17.9909L19.4873 18.4582L19.9597 18.9255L18.5874 20.0994C16.6282 21.7751 12.634 25.2498 12.0783 25.7619C11.4982 26.2964 11.4849 26.4638 11.9672 27.1654C12.919 28.5501 13.0181 30.3048 12.2264 31.7558C11.8223 32.4966 8.89041 35.3029 8.16839 35.6402C5.03051 37.1057 1.45881 34.9501 1.43673 31.5775C1.41 27.4946 6.29914 25.4784 9.3682 28.3067C10.081 28.9634 10.3667 29.0413 10.7555 28.6844C11.1163 28.3533 11.0541 28.0514 10.5081 27.483C6.77693 23.5991 0.0428493 26.2084 0.0339665 31.5416C0.0276857 35.2914 3.70455 38.1814 7.40061 37.3315L7.90451 37.2156L7.78302 37.6615C6.96616 40.658 9.17457 44.0772 12.3762 44.7731C17.8539 45.9636 21.9249 39.7784 18.5358 35.4145L18.0781 34.825L20.3608 32.3192C22.2099 30.2894 26.4372 25.6069 26.5649 25.4472C26.5818 25.4259 26.817 25.6219 27.0875 25.8828L27.5791 26.3572L25.2908 28.5987C22.7725 31.0655 22.7232 31.1375 23.2226 31.6253C23.6802 32.0724 23.7393 32.0326 26.2516 29.5851L28.5666 27.3298L29.0353 27.7877L29.504 28.2456L27.1953 30.507C24.6899 32.9613 24.6492 33.0189 25.1069 33.4659C25.6062 33.9538 25.6799 33.9057 28.2051 31.4456L30.4997 29.2102L30.9671 29.6724L31.4344 30.1347L29.1475 32.3674C26.6841 34.7724 26.5455 34.9674 27.0176 35.3634C27.5412 35.8027 27.7003 35.6977 30.2023 33.2622L32.4225 31.101L32.8722 31.5338L33.3219 31.9664L31.0333 34.2082C28.5149 36.6751 28.4656 36.7471 28.965 37.2349C29.4226 37.682 29.4817 37.6422 31.994 35.1948L34.309 32.9394L34.7777 33.3973L35.2465 33.8552L32.9377 36.1167C30.4323 38.5709 30.3916 38.6285 30.8493 39.0756C31.3486 39.5634 31.4224 39.5153 33.9475 37.0552L36.2421 34.8198L36.7095 35.2821L37.1768 35.7443L34.8899 37.977C32.4266 40.382 32.2879 40.577 32.76 40.973C33.2836 41.4123 33.4427 41.3073 35.9447 38.8719L38.165 36.7107L38.6147 37.1434L39.0644 37.576L36.7757 39.8178C34.2573 42.2847 34.2081 42.3568 34.7075 42.8445C35.1651 43.2916 35.2241 43.2518 37.7364 40.8044L40.0514 38.549L40.5202 39.0069L40.9889 39.4648L38.6802 41.7263C36.1748 44.1805 36.134 44.2382 36.5917 44.6852C37.1107 45.1922 37.0604 45.2292 40.7921 41.5916C44.9764 37.5127 45.2158 37.1423 44.7694 35.4399C44.532 34.5348 44.54 34.5434 37.4211 27.5751L30.6012 20.8993L32.078 19.2044C37.6978 12.755 45.4679 3.49426 45.8107 2.83732C46.6024 1.32036 44.7556 -0.540105 43.1403 0.147074ZM30.1049 14.6002C22.8851 21.6533 16.941 27.481 16.896 27.5505C16.6838 27.8782 17.1103 28.5098 17.5439 28.5098C17.7006 28.5098 21.0134 25.3278 30.9808 15.6032C38.2567 8.50462 44.0693 2.87423 43.8975 3.09116C39.5657 8.56299 27.6643 22.3032 20.192 30.4596L18.7669 32.015L18.5174 31.8414C17.9426 31.4416 17.4394 30.5979 17.4394 30.0341C17.4394 29.8673 16.9936 29.5616 16.7503 29.5616C15.662 29.5616 16.0594 31.546 17.3723 32.6679L17.8289 33.0581L17.245 33.6983C16.1863 34.8591 16.1776 34.9177 16.947 35.6971C18.561 37.3322 18.8368 39.6371 17.6348 41.4445C15.0966 45.261 9.0459 43.5245 9.06125 38.984C9.0669 37.3176 9.40902 36.7199 11.6369 34.4843C12.9502 33.1664 13.2292 32.8383 13.5115 32.2787C14.3505 30.6156 14.3739 28.7291 13.5748 27.1826C13.4302 26.9029 13.312 26.6348 13.312 26.5867C13.312 26.3047 24.8486 16.5213 33.0067 9.88494C37.9135 5.89352 43.0827 1.77641 43.1875 1.77641C43.212 1.77641 37.3249 7.54713 30.1049 14.6002ZM9.70341 2.61215C9.93724 2.70638 12.0531 4.71515 16.778 9.32845L23.519 15.9103L22.4756 16.7911C21.9017 17.2754 21.3397 17.7521 21.2269 17.8502L21.0216 18.0285L13.8031 10.9774L6.58473 3.92638L7.14274 3.37646C8.02931 2.50259 8.83523 2.26208 9.70341 2.61215ZM43.2874 35.3903C43.6953 36.2396 43.4536 37.0702 42.5415 37.953L41.9767 38.4998L34.7654 31.4548C28.0464 24.8909 27.5625 24.3983 27.6784 24.2393C27.7468 24.1455 28.2266 23.5889 28.7448 23.0025L29.6868 21.9363L36.4029 28.488C40.9833 32.9563 43.1726 35.1512 43.2874 35.3903ZM5.10435 28.3877C2.67208 29.1444 1.91497 32.1099 3.70706 33.8606C5.01831 35.1415 7.15987 35.1415 8.47112 33.8606C10.9191 31.4693 8.39387 27.3643 5.10435 28.3877ZM7.04844 29.836C8.17135 30.3857 8.40356 32.1156 7.46611 32.9478C6.03059 34.2221 3.73828 32.9898 4.1556 31.1681C4.45591 29.8571 5.81399 29.2317 7.04844 29.836ZM12.7096 35.8192C9.76882 36.7561 9.5123 40.713 12.3093 41.9939C13.5005 42.5393 15.143 42.2435 16.097 41.3117C18.5242 38.9405 15.9605 34.7835 12.7096 35.8192ZM14.6435 37.2901C15.9111 37.8865 16.0314 39.806 14.8487 40.5625C12.8451 41.8438 10.659 39.3672 12.2682 37.639C12.8391 37.0259 13.786 36.8868 14.6435 37.2901Z" fill="#CDA582"/>
</svg>
